<mxfile host="app.diagrams.net" agent="Mozilla/5.0 (Windows NT 10.0; Win64; x64) AppleWebKit/537.36 (KHTML, like Gecko) Chrome/137.0.0.0 Safari/537.36" version="27.1.6" pages="2">
  <diagram name="PÃ¡gina-1" id="As-ylru9SlLK7KS7QaXn">
    <mxGraphModel grid="1" page="1" gridSize="10" guides="1" tooltips="1" connect="1" arrows="1" fold="1" pageScale="1" pageWidth="827" pageHeight="1169" math="0" shadow="0">
      <root>
        <mxCell id="0" />
        <mxCell id="1" parent="0" />
        <mxCell id="sEuESF4rzVyC_rkCTEI_-43" value="Administrador" style="html=1;whiteSpace=wrap;" vertex="1" parent="1">
          <mxGeometry x="194" y="394" width="110" height="50" as="geometry" />
        </mxCell>
        <mxCell id="sEuESF4rzVyC_rkCTEI_-44" value="Sistema&lt;span style=&quot;color: rgba(0, 0, 0, 0); font-family: monospace; font-size: 0px; text-align: start; text-wrap-mode: nowrap;&quot;&gt;%3CmxGraphModel%3E%3Croot%3E%3CmxCell%20id%3D%220%22%2F%3E%3CmxCell%20id%3D%221%22%20parent%3D%220%22%2F%3E%3CmxCell%20id%3D%222%22%20value%3D%22Usuario%22%20style%3D%22html%3D1%3BwhiteSpace%3Dwrap%3B%22%20vertex%3D%221%22%20parent%3D%221%22%3E%3CmxGeometry%20x%3D%2270%22%20y%3D%2240%22%20width%3D%22110%22%20height%3D%2250%22%20as%3D%22geometry%22%2F%3E%3C%2FmxCell%3E%3C%2Froot%3E%3C%2FmxGraphModel%3E&lt;/span&gt;" style="html=1;whiteSpace=wrap;" vertex="1" parent="1">
          <mxGeometry x="404" y="394" width="110" height="50" as="geometry" />
        </mxCell>
        <mxCell id="sEuESF4rzVyC_rkCTEI_-46" value="Administrador" style="html=1;whiteSpace=wrap;" vertex="1" parent="1">
          <mxGeometry x="194" y="724" width="110" height="50" as="geometry" />
        </mxCell>
        <mxCell id="sEuESF4rzVyC_rkCTEI_-47" value="Sistema&lt;span style=&quot;color: rgba(0, 0, 0, 0); font-family: monospace; font-size: 0px; text-align: start; text-wrap-mode: nowrap;&quot;&gt;%3CmxGraphModel%3E%3Croot%3E%3CmxCell%20id%3D%220%22%2F%3E%3CmxCell%20id%3D%221%22%20parent%3D%220%22%2F%3E%3CmxCell%20id%3D%222%22%20value%3D%22Usuario%22%20style%3D%22html%3D1%3BwhiteSpace%3Dwrap%3B%22%20vertex%3D%221%22%20parent%3D%221%22%3E%3CmxGeometry%20x%3D%2270%22%20y%3D%2240%22%20width%3D%22110%22%20height%3D%2250%22%20as%3D%22geometry%22%2F%3E%3C%2FmxCell%3E%3C%2Froot%3E%3C%2FmxGraphModel%3E&lt;/span&gt;" style="html=1;whiteSpace=wrap;" vertex="1" parent="1">
          <mxGeometry x="404" y="724" width="110" height="50" as="geometry" />
        </mxCell>
        <mxCell id="sEuESF4rzVyC_rkCTEI_-51" value="" style="endArrow=none;dashed=1;html=1;rounded=0;entryX=0.5;entryY=1;entryDx=0;entryDy=0;exitX=0.5;exitY=0;exitDx=0;exitDy=0;" edge="1" parent="1" source="sEuESF4rzVyC_rkCTEI_-53" target="sEuESF4rzVyC_rkCTEI_-44">
          <mxGeometry width="50" height="50" relative="1" as="geometry">
            <mxPoint x="434" y="684" as="sourcePoint" />
            <mxPoint x="484" y="634" as="targetPoint" />
          </mxGeometry>
        </mxCell>
        <mxCell id="sEuESF4rzVyC_rkCTEI_-53" value="" style="html=1;points=[[0,0,0,0,5],[0,1,0,0,-5],[1,0,0,0,5],[1,1,0,0,-5]];perimeter=orthogonalPerimeter;outlineConnect=0;targetShapes=umlLifeline;portConstraint=eastwest;newEdgeStyle={&quot;curved&quot;:0,&quot;rounded&quot;:0};" vertex="1" parent="1">
          <mxGeometry x="454" y="494" width="10" height="30" as="geometry" />
        </mxCell>
        <mxCell id="sEuESF4rzVyC_rkCTEI_-54" value="" style="endArrow=classic;html=1;rounded=0;entryX=0;entryY=0;entryDx=0;entryDy=5;entryPerimeter=0;" edge="1" parent="1" target="sEuESF4rzVyC_rkCTEI_-53">
          <mxGeometry width="50" height="50" relative="1" as="geometry">
            <mxPoint x="264" y="499" as="sourcePoint" />
            <mxPoint x="364" y="474" as="targetPoint" />
          </mxGeometry>
        </mxCell>
        <mxCell id="sEuESF4rzVyC_rkCTEI_-55" value="1.Pulsa apartado &quot;Eventos &quot;" style="text;html=1;align=center;verticalAlign=middle;whiteSpace=wrap;rounded=0;" vertex="1" parent="1">
          <mxGeometry x="270.25" y="474" width="170" height="20" as="geometry" />
        </mxCell>
        <mxCell id="sEuESF4rzVyC_rkCTEI_-58" value="" style="endArrow=classic;html=1;rounded=0;" edge="1" parent="1">
          <mxGeometry width="50" height="50" relative="1" as="geometry">
            <mxPoint x="464" y="539" as="sourcePoint" />
            <mxPoint x="660" y="539" as="targetPoint" />
          </mxGeometry>
        </mxCell>
        <mxCell id="sEuESF4rzVyC_rkCTEI_-59" value="2. Solicita listado de eventos" style="text;html=1;align=center;verticalAlign=middle;whiteSpace=wrap;rounded=0;" vertex="1" parent="1">
          <mxGeometry x="480" y="514" width="170" height="20" as="geometry" />
        </mxCell>
        <mxCell id="sEuESF4rzVyC_rkCTEI_-67" value="" style="endArrow=none;dashed=1;html=1;rounded=0;exitX=0.418;exitY=-0.012;exitDx=0;exitDy=0;exitPerimeter=0;" edge="1" parent="1" source="sEuESF4rzVyC_rkCTEI_-93">
          <mxGeometry width="50" height="50" relative="1" as="geometry">
            <mxPoint x="256.09000000000003" y="1234.0000000000002" as="sourcePoint" />
            <mxPoint x="248" y="444" as="targetPoint" />
          </mxGeometry>
        </mxCell>
        <mxCell id="sEuESF4rzVyC_rkCTEI_-87" value="" style="endArrow=none;dashed=1;html=1;rounded=0;exitX=0.5;exitY=0;exitDx=0;exitDy=0;" edge="1" parent="1" target="sEuESF4rzVyC_rkCTEI_-53">
          <mxGeometry width="50" height="50" relative="1" as="geometry">
            <mxPoint x="460.25" y="603.9999999999999" as="sourcePoint" />
            <mxPoint x="460" y="530" as="targetPoint" />
          </mxGeometry>
        </mxCell>
        <mxCell id="sEuESF4rzVyC_rkCTEI_-89" value="" style="endArrow=none;dashed=1;html=1;rounded=0;exitX=0.5;exitY=0;exitDx=0;exitDy=0;" edge="1" parent="1" source="umfQGhsprnZl521hIdXA-8">
          <mxGeometry width="50" height="50" relative="1" as="geometry">
            <mxPoint x="460.25" y="664" as="sourcePoint" />
            <mxPoint x="460" y="604" as="targetPoint" />
          </mxGeometry>
        </mxCell>
        <mxCell id="sEuESF4rzVyC_rkCTEI_-91" value="4. Muestra listado de eventos" style="text;html=1;align=center;verticalAlign=middle;whiteSpace=wrap;rounded=0;" vertex="1" parent="1">
          <mxGeometry x="264" y="640" width="190" height="20" as="geometry" />
        </mxCell>
        <mxCell id="sEuESF4rzVyC_rkCTEI_-147" value="" style="endArrow=none;dashed=1;html=1;rounded=0;entryX=0.444;entryY=1.081;entryDx=0;entryDy=0;entryPerimeter=0;" edge="1" parent="1" source="sEuESF4rzVyC_rkCTEI_-46" target="sEuESF4rzVyC_rkCTEI_-93">
          <mxGeometry width="50" height="50" relative="1" as="geometry">
            <mxPoint x="259" y="1044" as="sourcePoint" />
            <mxPoint x="253" y="458" as="targetPoint" />
          </mxGeometry>
        </mxCell>
        <mxCell id="sEuESF4rzVyC_rkCTEI_-154" value="" style="endArrow=classic;html=1;rounded=0;fontSize=12;startSize=8;endSize=8;curved=1;" edge="1" parent="1" target="sEuESF4rzVyC_rkCTEI_-93">
          <mxGeometry width="50" height="50" relative="1" as="geometry">
            <mxPoint x="460" y="660" as="sourcePoint" />
            <mxPoint x="264" y="660" as="targetPoint" />
          </mxGeometry>
        </mxCell>
        <mxCell id="sEuESF4rzVyC_rkCTEI_-93" value="" style="html=1;points=[[0,0,0,0,5],[0,1,0,0,-5],[1,0,0,0,5],[1,1,0,0,-5]];perimeter=orthogonalPerimeter;outlineConnect=0;targetShapes=umlLifeline;portConstraint=eastwest;newEdgeStyle={&quot;curved&quot;:0,&quot;rounded&quot;:0};" vertex="1" parent="1">
          <mxGeometry x="246.5" y="650" width="10" height="30" as="geometry" />
        </mxCell>
        <mxCell id="umfQGhsprnZl521hIdXA-1" value="Base de datos" style="html=1;whiteSpace=wrap;" vertex="1" parent="1">
          <mxGeometry x="610" y="394" width="110" height="50" as="geometry" />
        </mxCell>
        <mxCell id="umfQGhsprnZl521hIdXA-2" value="Base de datos" style="html=1;whiteSpace=wrap;" vertex="1" parent="1">
          <mxGeometry x="610" y="724" width="110" height="50" as="geometry" />
        </mxCell>
        <mxCell id="umfQGhsprnZl521hIdXA-4" value="" style="endArrow=none;dashed=1;html=1;rounded=0;" edge="1" parent="1" source="umfQGhsprnZl521hIdXA-6" target="umfQGhsprnZl521hIdXA-1">
          <mxGeometry width="50" height="50" relative="1" as="geometry">
            <mxPoint x="675" y="1044" as="sourcePoint" />
            <mxPoint x="664.44" y="631.4300000000001" as="targetPoint" />
          </mxGeometry>
        </mxCell>
        <mxCell id="umfQGhsprnZl521hIdXA-7" value="" style="endArrow=none;dashed=1;html=1;rounded=0;" edge="1" parent="1" source="umfQGhsprnZl521hIdXA-2" target="umfQGhsprnZl521hIdXA-6">
          <mxGeometry width="50" height="50" relative="1" as="geometry">
            <mxPoint x="665" y="724" as="sourcePoint" />
            <mxPoint x="665" y="444" as="targetPoint" />
          </mxGeometry>
        </mxCell>
        <mxCell id="umfQGhsprnZl521hIdXA-6" value="" style="html=1;points=[[0,0,0,0,5],[0,1,0,0,-5],[1,0,0,0,5],[1,1,0,0,-5]];perimeter=orthogonalPerimeter;outlineConnect=0;targetShapes=umlLifeline;portConstraint=eastwest;newEdgeStyle={&quot;curved&quot;:0,&quot;rounded&quot;:0};" vertex="1" parent="1">
          <mxGeometry x="660" y="534" width="10" height="30" as="geometry" />
        </mxCell>
        <mxCell id="umfQGhsprnZl521hIdXA-9" value="" style="endArrow=none;dashed=1;html=1;rounded=0;exitX=0.5;exitY=0;exitDx=0;exitDy=0;" edge="1" parent="1" source="sEuESF4rzVyC_rkCTEI_-47" target="umfQGhsprnZl521hIdXA-8">
          <mxGeometry width="50" height="50" relative="1" as="geometry">
            <mxPoint x="459" y="724" as="sourcePoint" />
            <mxPoint x="460" y="604" as="targetPoint" />
          </mxGeometry>
        </mxCell>
        <mxCell id="umfQGhsprnZl521hIdXA-8" value="" style="html=1;points=[[0,0,0,0,5],[0,1,0,0,-5],[1,0,0,0,5],[1,1,0,0,-5]];perimeter=orthogonalPerimeter;outlineConnect=0;targetShapes=umlLifeline;portConstraint=eastwest;newEdgeStyle={&quot;curved&quot;:0,&quot;rounded&quot;:0};" vertex="1" parent="1">
          <mxGeometry x="454" y="600" width="10" height="30" as="geometry" />
        </mxCell>
        <mxCell id="umfQGhsprnZl521hIdXA-11" value="3. EnvÃ­a listado de eventos" style="text;html=1;align=center;verticalAlign=middle;whiteSpace=wrap;rounded=0;" vertex="1" parent="1">
          <mxGeometry x="474.87" y="590" width="180.25" height="20" as="geometry" />
        </mxCell>
        <mxCell id="umfQGhsprnZl521hIdXA-12" value="" style="endArrow=classic;html=1;rounded=0;fontSize=12;startSize=8;endSize=8;curved=1;" edge="1" parent="1">
          <mxGeometry width="50" height="50" relative="1" as="geometry">
            <mxPoint x="660" y="615" as="sourcePoint" />
            <mxPoint x="464" y="615" as="targetPoint" />
          </mxGeometry>
        </mxCell>
      </root>
    </mxGraphModel>
  </diagram>
  <diagram id="nIOQxxJyPP5hoQOKl2aF" name="PÃ¡gina-2">
    <mxGraphModel dx="1111" dy="507" grid="1" gridSize="10" guides="1" tooltips="1" connect="1" arrows="1" fold="1" page="1" pageScale="1" pageWidth="827" pageHeight="1169" math="0" shadow="0">
      <root>
        <mxCell id="0" />
        <mxCell id="1" parent="0" />
      </root>
    </mxGraphModel>
  </diagram>
</mxfile>
